# This file uses centimeters as units for non-parametric coordinates.

mtllib disc.mtl
g default
v 0.980784 0.000000 -0.195090
v 0.923879 0.000000 -0.382683
v 0.831469 0.000000 -0.555569
v 0.707106 0.000000 -0.707106
v 0.555570 0.000000 -0.831468
v 0.382683 0.000000 -0.923878
v 0.195091 0.000000 -0.980784
v 0.000000 0.000000 -0.999999
v -0.195090 0.000000 -0.980784
v -0.382683 0.000000 -0.923879
v -0.555569 0.000000 -0.831469
v -0.707106 0.000000 -0.707106
v -0.831469 0.000000 -0.555570
v -0.923879 0.000000 -0.382683
v -0.980785 0.000000 -0.195091
v -0.999999 0.000000 -0.000000
v -0.980785 0.000000 0.195090
v -0.923879 0.000000 0.382683
v -0.831469 0.000000 0.555570
v -0.707107 0.000000 0.707106
v -0.555570 0.000000 0.831469
v -0.382683 0.000000 0.923879
v -0.195090 0.000000 0.980785
v -0.000000 0.000000 1.000000
v 0.195090 0.000000 0.980785
v 0.382683 0.000000 0.923879
v 0.555570 0.000000 0.831470
v 0.707107 0.000000 0.707107
v 0.831469 0.000000 0.555570
v 0.923879 0.000000 0.382683
v 0.980785 0.000000 0.195090
v 1.000000 0.000000 0.000000
v 0.000000 0.000000 0.000000
vt 0.653248 0.813267
vt 0.644356 0.783956
vt 0.629917 0.756942
vt 0.610485 0.733265
vt 0.586808 0.713833
vt 0.559794 0.699394
vt 0.530483 0.690502
vt 0.500000 0.687500
vt 0.469517 0.690502
vt 0.440206 0.699394
vt 0.413192 0.713833
vt 0.389515 0.733265
vt 0.370083 0.756942
vt 0.355644 0.783956
vt 0.346752 0.813267
vt 0.343750 0.843750
vt 0.346752 0.874233
vt 0.355644 0.903544
vt 0.370083 0.930558
vt 0.389515 0.954235
vt 0.413192 0.973667
vt 0.440206 0.988106
vt 0.469517 0.996998
vt 0.500000 1.000000
vt 0.530483 0.996998
vt 0.559794 0.988106
vt 0.586808 0.973667
vt 0.610485 0.954235
vt 0.629917 0.930558
vt 0.644356 0.903544
vt 0.653248 0.874233
vt 0.656250 0.843750
vt 0.500000 0.837500
vn 0.000000 -1.000000 0.000000
vn 0.000000 -1.000000 0.000000
vn 0.000000 -1.000000 0.000000
vn 0.000000 -1.000000 0.000000
vn 0.000000 -1.000000 0.000000
vn 0.000000 -1.000000 0.000000
vn 0.000000 -1.000000 0.000000
vn 0.000000 -1.000000 0.000000
vn 0.000000 -1.000000 0.000000
vn 0.000000 -1.000000 0.000000
vn 0.000000 -1.000000 0.000000
vn 0.000000 -1.000000 0.000000
vn 0.000000 -1.000000 0.000000
vn 0.000000 -1.000000 0.000000
vn 0.000000 -1.000000 0.000000
vn 0.000000 -1.000000 0.000000
vn 0.000000 -1.000000 0.000000
vn 0.000000 -1.000000 0.000000
vn 0.000000 -1.000000 0.000000
vn 0.000000 -1.000000 0.000000
vn 0.000000 -1.000000 0.000000
vn 0.000000 -1.000000 0.000000
vn 0.000000 -1.000000 0.000000
vn 0.000000 -1.000000 0.000000
vn 0.000000 -1.000000 0.000000
vn 0.000000 -1.000000 0.000000
vn 0.000000 -1.000000 0.000000
vn 0.000000 -1.000000 0.000000
vn 0.000000 -1.000000 0.000000
vn 0.000000 -1.000000 0.000000
vn 0.000000 -1.000000 0.000000
vn 0.000000 -1.000000 0.000000
vn 0.000000 -1.000000 0.000000
s 1
g pCylinder1
usemtl initialShadingGroup
f 1/31/1 33/33/2 2/30/3
f 2/30/3 33/33/2 3/29/4
f 3/29/4 33/33/2 4/28/5
f 4/28/5 33/33/2 5/27/6
f 5/27/6 33/33/2 6/26/7
f 6/26/7 33/33/2 7/25/8
f 7/25/8 33/33/2 8/24/9
f 8/24/9 33/33/2 9/23/10
f 9/23/10 33/33/2 10/22/11
f 10/22/11 33/33/2 11/21/12
f 11/21/12 33/33/2 12/20/13
f 12/20/13 33/33/2 13/19/14
f 13/19/14 33/33/2 14/18/15
f 14/18/15 33/33/2 15/17/16
f 15/17/16 33/33/2 16/16/17
f 16/16/17 33/33/2 17/15/18
f 17/15/18 33/33/2 18/14/19
f 18/14/19 33/33/2 19/13/20
f 19/13/20 33/33/2 20/12/21
f 20/12/21 33/33/2 21/11/22
f 21/11/22 33/33/2 22/10/23
f 22/10/23 33/33/2 23/9/24
f 23/9/24 33/33/2 24/8/25
f 24/8/25 33/33/2 25/7/26
f 25/7/26 33/33/2 26/6/27
f 26/6/27 33/33/2 27/5/28
f 27/5/28 33/33/2 28/4/29
f 28/4/29 33/33/2 29/3/30
f 29/3/30 33/33/2 30/2/31
f 30/2/31 33/33/2 31/1/32
f 31/1/32 33/33/2 32/32/33
f 32/32/33 33/33/2 1/31/1
