# This file uses centimeters as units for non-parametric coordinates.

mtllib sphere.mtl
g default
v 0.270598 -0.923880 -0.270598
v 0.000000 -0.923880 -0.382683
v -0.270598 -0.923880 -0.270598
v -0.382683 -0.923880 0.000000
v -0.270598 -0.923880 0.270598
v 0.000000 -0.923880 0.382683
v 0.270598 -0.923880 0.270598
v 0.382683 -0.923880 0.000000
v 0.500000 -0.707107 -0.500000
v 0.000000 -0.707107 -0.707107
v -0.500000 -0.707107 -0.500000
v -0.707107 -0.707107 0.000000
v -0.500000 -0.707107 0.500000
v 0.000000 -0.707107 0.707107
v 0.500000 -0.707107 0.500000
v 0.707107 -0.707107 0.000000
v 0.653281 -0.382683 -0.653281
v 0.000000 -0.382683 -0.923879
v -0.653281 -0.382683 -0.653281
v -0.923879 -0.382683 0.000000
v -0.653281 -0.382683 0.653281
v 0.000000 -0.382683 0.923879
v 0.653281 -0.382683 0.653281
v 0.923880 -0.382683 0.000000
v 0.707107 0.000000 -0.707107
v 0.000000 0.000000 -1.000000
v -0.707107 0.000000 -0.707107
v -1.000000 0.000000 0.000000
v -0.707107 0.000000 0.707107
v 0.000000 0.000000 1.000000
v 0.707107 0.000000 0.707107
v 1.000000 0.000000 0.000000
v 0.653281 0.382683 -0.653281
v 0.000000 0.382683 -0.923879
v -0.653281 0.382683 -0.653281
v -0.923879 0.382683 0.000000
v -0.653281 0.382683 0.653281
v 0.000000 0.382683 0.923879
v 0.653281 0.382683 0.653281
v 0.923880 0.382683 0.000000
v 0.500000 0.707107 -0.500000
v 0.000000 0.707107 -0.707107
v -0.500000 0.707107 -0.500000
v -0.707107 0.707107 0.000000
v -0.500000 0.707107 0.500000
v 0.000000 0.707107 0.707107
v 0.500000 0.707107 0.500000
v 0.707107 0.707107 0.000000
v 0.270598 0.923880 -0.270598
v 0.000000 0.923880 -0.382683
v -0.270598 0.923880 -0.270598
v -0.382683 0.923880 0.000000
v -0.270598 0.923880 0.270598
v 0.000000 0.923880 0.382683
v 0.270598 0.923880 0.270598
v 0.382683 0.923880 0.000000
v 0.000000 -1.000000 0.000000
v 0.000000 1.000000 0.000000
vt 0.000000 0.125000
vt 0.125000 0.125000
vt 0.250000 0.125000
vt 0.375000 0.125000
vt 0.500000 0.125000
vt 0.625000 0.125000
vt 0.750000 0.125000
vt 0.875000 0.125000
vt 1.000000 0.125000
vt 0.000000 0.250000
vt 0.125000 0.250000
vt 0.250000 0.250000
vt 0.375000 0.250000
vt 0.500000 0.250000
vt 0.625000 0.250000
vt 0.750000 0.250000
vt 0.875000 0.250000
vt 1.000000 0.250000
vt 0.000000 0.375000
vt 0.125000 0.375000
vt 0.250000 0.375000
vt 0.375000 0.375000
vt 0.500000 0.375000
vt 0.625000 0.375000
vt 0.750000 0.375000
vt 0.875000 0.375000
vt 1.000000 0.375000
vt 0.000000 0.500000
vt 0.125000 0.500000
vt 0.250000 0.500000
vt 0.375000 0.500000
vt 0.500000 0.500000
vt 0.625000 0.500000
vt 0.750000 0.500000
vt 0.875000 0.500000
vt 1.000000 0.500000
vt 0.000000 0.625000
vt 0.125000 0.625000
vt 0.250000 0.625000
vt 0.375000 0.625000
vt 0.500000 0.625000
vt 0.625000 0.625000
vt 0.750000 0.625000
vt 0.875000 0.625000
vt 1.000000 0.625000
vt 0.000000 0.750000
vt 0.125000 0.750000
vt 0.250000 0.750000
vt 0.375000 0.750000
vt 0.500000 0.750000
vt 0.625000 0.750000
vt 0.750000 0.750000
vt 0.875000 0.750000
vt 1.000000 0.750000
vt 0.000000 0.875000
vt 0.125000 0.875000
vt 0.250000 0.875000
vt 0.375000 0.875000
vt 0.500000 0.875000
vt 0.625000 0.875000
vt 0.750000 0.875000
vt 0.875000 0.875000
vt 1.000000 0.875000
vt 0.062500 0.000000
vt 0.187500 0.000000
vt 0.312500 0.000000
vt 0.437500 0.000000
vt 0.562500 0.000000
vt 0.687500 0.000000
vt 0.812500 0.000000
vt 0.937500 0.000000
vt 0.062500 1.000000
vt 0.187500 1.000000
vt 0.312500 1.000000
vt 0.437500 1.000000
vt 0.562500 1.000000
vt 0.687500 1.000000
vt 0.812500 1.000000
vt 0.937500 1.000000
vn 0.336409 -0.895771 -0.290558
vn 0.032422 -0.895771 -0.443332
vn 0.547674 -0.667396 -0.504614
vn 0.030447 -0.667396 -0.744080
vn -0.290557 -0.895771 -0.336409
vn -0.504615 -0.667396 -0.547674
vn -0.443332 -0.895771 -0.032422
vn -0.744080 -0.667396 -0.030447
vn -0.336409 -0.895771 0.290557
vn -0.547674 -0.667396 0.504614
vn -0.032422 -0.895771 0.443332
vn -0.030447 -0.667396 0.744080
vn 0.290557 -0.895771 0.336410
vn 0.504614 -0.667396 0.547674
vn 0.443332 -0.895771 0.032422
vn 0.744080 -0.667396 0.030447
vn 0.673450 -0.355638 -0.648063
vn 0.017951 -0.355638 -0.934451
vn -0.648063 -0.355638 -0.673450
vn -0.934451 -0.355639 -0.017951
vn -0.673450 -0.355638 0.648063
vn -0.017951 -0.355639 0.934451
vn 0.648063 -0.355639 0.673450
vn 0.934451 -0.355639 0.017951
vn 0.707107 0.000000 -0.707107
vn 0.000000 0.000000 -1.000000
vn -0.707107 0.000000 -0.707107
vn -1.000000 0.000000 0.000000
vn -0.707107 0.000000 0.707107
vn -0.000000 0.000000 1.000000
vn 0.707107 0.000000 0.707107
vn 1.000000 -0.000000 -0.000000
vn 0.648063 0.355639 -0.673450
vn -0.017951 0.355638 -0.934451
vn -0.673450 0.355638 -0.648063
vn -0.934451 0.355638 0.017951
vn -0.648063 0.355638 0.673450
vn 0.017951 0.355638 0.934451
vn 0.673450 0.355639 0.648063
vn 0.934451 0.355639 -0.017951
vn 0.504614 0.667396 -0.547674
vn -0.030447 0.667396 -0.744080
vn -0.547674 0.667396 -0.504614
vn -0.744080 0.667396 0.030447
vn -0.504615 0.667396 0.547674
vn 0.030447 0.667396 0.744080
vn 0.547674 0.667396 0.504614
vn 0.744080 0.667396 -0.030447
vn 0.290557 0.895771 -0.336410
vn -0.032422 0.895771 -0.443332
vn -0.336409 0.895771 -0.290557
vn -0.443332 0.895771 0.032422
vn -0.290557 0.895771 0.336409
vn 0.032422 0.895771 0.443333
vn 0.336409 0.895771 0.290557
vn 0.443333 0.895771 -0.032422
vn 0.000000 -1.000000 0.000000
vn 0.000000 1.000000 0.000000
s 1
g pSphere1
usemtl initialShadingGroup
f 1/1/1 2/2/2 9/10/3
f 9/10/3 2/2/2 10/11/4
f 2/2/2 3/3/5 10/11/4
f 10/11/4 3/3/5 11/12/6
f 3/3/5 4/4/7 11/12/6
f 11/12/6 4/4/7 12/13/8
f 4/4/7 5/5/9 12/13/8
f 12/13/8 5/5/9 13/14/10
f 5/5/9 6/6/11 13/14/10
f 13/14/10 6/6/11 14/15/12
f 6/6/11 7/7/13 14/15/12
f 14/15/12 7/7/13 15/16/14
f 7/7/13 8/8/15 15/16/14
f 15/16/14 8/8/15 16/17/16
f 8/8/15 1/9/1 16/17/16
f 16/17/16 1/9/1 9/18/3
f 9/10/3 10/11/4 17/19/17
f 17/19/17 10/11/4 18/20/18
f 10/11/4 11/12/6 18/20/18
f 18/20/18 11/12/6 19/21/19
f 11/12/6 12/13/8 19/21/19
f 19/21/19 12/13/8 20/22/20
f 12/13/8 13/14/10 20/22/20
f 20/22/20 13/14/10 21/23/21
f 13/14/10 14/15/12 21/23/21
f 21/23/21 14/15/12 22/24/22
f 14/15/12 15/16/14 22/24/22
f 22/24/22 15/16/14 23/25/23
f 15/16/14 16/17/16 23/25/23
f 23/25/23 16/17/16 24/26/24
f 16/17/16 9/18/3 24/26/24
f 24/26/24 9/18/3 17/27/17
f 17/19/17 18/20/18 25/28/25
f 25/28/25 18/20/18 26/29/26
f 18/20/18 19/21/19 26/29/26
f 26/29/26 19/21/19 27/30/27
f 19/21/19 20/22/20 27/30/27
f 27/30/27 20/22/20 28/31/28
f 20/22/20 21/23/21 28/31/28
f 28/31/28 21/23/21 29/32/29
f 21/23/21 22/24/22 29/32/29
f 29/32/29 22/24/22 30/33/30
f 22/24/22 23/25/23 30/33/30
f 30/33/30 23/25/23 31/34/31
f 23/25/23 24/26/24 31/34/31
f 31/34/31 24/26/24 32/35/32
f 24/26/24 17/27/17 32/35/32
f 32/35/32 17/27/17 25/36/25
f 25/28/25 26/29/26 33/37/33
f 33/37/33 26/29/26 34/38/34
f 26/29/26 27/30/27 34/38/34
f 34/38/34 27/30/27 35/39/35
f 27/30/27 28/31/28 35/39/35
f 35/39/35 28/31/28 36/40/36
f 28/31/28 29/32/29 36/40/36
f 36/40/36 29/32/29 37/41/37
f 29/32/29 30/33/30 37/41/37
f 37/41/37 30/33/30 38/42/38
f 30/33/30 31/34/31 38/42/38
f 38/42/38 31/34/31 39/43/39
f 31/34/31 32/35/32 39/43/39
f 39/43/39 32/35/32 40/44/40
f 32/35/32 25/36/25 40/44/40
f 40/44/40 25/36/25 33/45/33
f 33/37/33 34/38/34 41/46/41
f 41/46/41 34/38/34 42/47/42
f 34/38/34 35/39/35 42/47/42
f 42/47/42 35/39/35 43/48/43
f 35/39/35 36/40/36 43/48/43
f 43/48/43 36/40/36 44/49/44
f 36/40/36 37/41/37 44/49/44
f 44/49/44 37/41/37 45/50/45
f 37/41/37 38/42/38 45/50/45
f 45/50/45 38/42/38 46/51/46
f 38/42/38 39/43/39 46/51/46
f 46/51/46 39/43/39 47/52/47
f 39/43/39 40/44/40 47/52/47
f 47/52/47 40/44/40 48/53/48
f 40/44/40 33/45/33 48/53/48
f 48/53/48 33/45/33 41/54/41
f 41/46/41 42/47/42 49/55/49
f 49/55/49 42/47/42 50/56/50
f 42/47/42 43/48/43 50/56/50
f 50/56/50 43/48/43 51/57/51
f 43/48/43 44/49/44 51/57/51
f 51/57/51 44/49/44 52/58/52
f 44/49/44 45/50/45 52/58/52
f 52/58/52 45/50/45 53/59/53
f 45/50/45 46/51/46 53/59/53
f 53/59/53 46/51/46 54/60/54
f 46/51/46 47/52/47 54/60/54
f 54/60/54 47/52/47 55/61/55
f 47/52/47 48/53/48 55/61/55
f 55/61/55 48/53/48 56/62/56
f 48/53/48 41/54/41 56/62/56
f 56/62/56 41/54/41 49/63/49
f 2/2/2 1/1/1 57/64/57
f 3/3/5 2/2/2 57/65/57
f 4/4/7 3/3/5 57/66/57
f 5/5/9 4/4/7 57/67/57
f 6/6/11 5/5/9 57/68/57
f 7/7/13 6/6/11 57/69/57
f 8/8/15 7/7/13 57/70/57
f 1/9/1 8/8/15 57/71/57
f 49/55/49 50/56/50 58/72/58
f 50/56/50 51/57/51 58/73/58
f 51/57/51 52/58/52 58/74/58
f 52/58/52 53/59/53 58/75/58
f 53/59/53 54/60/54 58/76/58
f 54/60/54 55/61/55 58/77/58
f 55/61/55 56/62/56 58/78/58
f 56/62/56 49/63/49 58/79/58
